# xmcd
# 
# Track frame offsets:
#     150
#     9161
#     27829
#     36837
#     50164
#     62848
#     78143
#     89857
#     107567
#     118275
#     134232
#     149793
# 
# Disc length: 2281
# 
# Revision: 1
# Processed by: cddbd v1.5.2PL0 Copyright (c) Steve Scherf et al.
# Submitted via: fre:ac v1.0.31
# 
DISCID=b208e70c
DTITLE=The Oak Ridge Boys - Christmas Time's A-Coming
DYEAR=2012
DGENRE=Christmas
TTITLE0=Let It Snow! Let It Snow! Let It Snow!
TTITLE1=Peterbilt Sleigh
TTITLE2=Here Comes Santa Claus
TTITLE3=Christmas Time's A-Coming
TTITLE4=White Christmas
TTITLE5=All I Want For Christmas Is You
TTITLE6=Santa Claus Is Coming To Town
TTITLE7=Getting Ready For A Baby
TTITLE8=Joy To The World
TTITLE9=Mary, Did You Know?
TTITLE10=Mary Had A Little Lamb
TTITLE11=Glorious Impossible
EXTD=
EXTT0=
EXTT1=
EXTT2=
EXTT3=
EXTT4=
EXTT5=
EXTT6=
EXTT7=
EXTT8=
EXTT9=
EXTT10=
EXTT11=
PLAYORDER=
